# Blender v2.79 (sub 0) OBJ File: 'Dorm Room.blend'
# www.blender.org
mtllib desk.mtl
o Desk_Cube
v -2.536742 0.741661 -1.731152
v -1.821924 0.741661 -1.732345
v -1.817933 0.741661 0.658708
v -2.532751 0.741661 0.659901
v -2.536742 0.843300 -1.731153
v -1.821924 0.843300 -1.732344
v -1.817933 0.843300 0.658709
v -2.532751 0.843300 0.659901
v -2.497882 0.017781 0.636265
v -1.852881 0.017781 0.635188
v -1.852881 0.741460 0.635189
v -2.497882 0.741460 0.636265
v -2.497927 0.017781 0.609363
v -1.852926 0.017781 0.608286
v -1.852926 0.741460 0.608286
v -2.497927 0.741460 0.609363
v -2.501730 0.017781 -1.669137
v -1.856729 0.017781 -1.670213
v -1.856729 0.741460 -1.670213
v -2.501730 0.741460 -1.669137
v -2.501775 0.017781 -1.696039
v -1.856773 0.017781 -1.697115
v -1.856774 0.741460 -1.697115
v -2.501775 0.741460 -1.696039
v -2.501041 0.017781 -1.256149
v -1.856039 0.017781 -1.257226
v -1.856040 0.741460 -1.257226
v -2.501041 0.741460 -1.256149
v -2.501086 0.017781 -1.283051
v -1.856084 0.017781 -1.284128
v -1.856084 0.741460 -1.284128
v -2.501086 0.741460 -1.283051
v -2.501084 0.029173 -1.281727
v -1.856082 0.029173 -1.282803
v -1.856732 0.029173 -1.672397
v -2.501734 0.029173 -1.671321
v -2.501083 0.023793 -1.281727
v -1.856082 0.023793 -1.282803
v -1.856732 0.023793 -1.672398
v -2.501734 0.023793 -1.671321
v -2.497014 0.741472 -1.281734
v -2.497014 0.029033 -1.281734
v -2.497664 0.029033 -1.671328
v -2.497664 0.741472 -1.671328
v -2.500217 0.741472 -1.281728
v -2.500217 0.029032 -1.281728
v -2.500867 0.029033 -1.671323
v -2.500867 0.741472 -1.671322
vn 0.0000 -1.0000 0.0000
vn 0.0000 1.0000 -0.0000
vn -0.0017 0.0000 -1.0000
vn 1.0000 -0.0000 -0.0017
vn 0.0017 -0.0000 1.0000
vn -1.0000 0.0000 0.0017
usemtl DeskBody
s off
f 1//1 2//1 3//1 4//1
f 5//2 8//2 7//2 6//2
f 1//3 5//3 6//3 2//3
f 2//4 6//4 7//4 3//4
f 3//5 7//5 8//5 4//5
f 5//6 1//6 4//6 8//6
f 9//5 10//5 11//5 12//5
f 13//3 16//3 15//3 14//3
f 9//1 13//1 14//1 10//1
f 10//4 14//4 15//4 11//4
f 11//2 15//2 16//2 12//2
f 13//6 9//6 12//6 16//6
f 17//5 18//5 19//5 20//5
f 21//3 24//3 23//3 22//3
f 17//1 21//1 22//1 18//1
f 18//4 22//4 23//4 19//4
f 19//2 23//2 24//2 20//2
f 21//6 17//6 20//6 24//6
f 25//5 26//5 27//5 28//5
f 29//3 32//3 31//3 30//3
f 25//1 29//1 30//1 26//1
f 26//4 30//4 31//4 27//4
f 27//2 31//2 32//2 28//2
f 29//6 25//6 28//6 32//6
f 33//2 34//2 35//2 36//2
f 37//1 40//1 39//1 38//1
f 33//5 37//5 38//5 34//5
f 34//4 38//4 39//4 35//4
f 35//3 39//3 40//3 36//3
f 37//6 33//6 36//6 40//6
f 41//4 42//4 43//4 44//4
f 45//6 48//6 47//6 46//6
f 41//5 45//5 46//5 42//5
f 42//1 46//1 47//1 43//1
f 43//3 47//3 48//3 44//3
f 45//2 41//2 44//2 48//2
