# Blender v2.79 (sub 0) OBJ File: 'Dorm Room.blend'
# www.blender.org
mtllib walls.mtl
o Room
v -2.573176 2.400000 3.104152
v -2.573176 0.000000 3.104152
v 2.426824 2.400000 3.104152
v 2.426824 0.000000 3.104152
v 2.426824 2.400000 -3.895848
v 2.426824 0.000000 -3.895848
v -2.573176 2.400000 -3.895848
v -2.573176 0.000000 -3.895848
vt 0.999968 0.100025
vt 0.791648 0.100025
vt 0.791648 0.000032
vt 0.999968 0.000032
vt 0.500000 0.100025
vt 0.500000 0.000032
vt 0.291680 0.100025
vt 0.291680 0.000032
vt 0.000032 0.100025
vt 0.000032 0.000032
vn 0.0000 0.0000 -1.0000
vn -1.0000 0.0000 0.0000
vn 0.0000 0.0000 1.0000
vn 1.0000 0.0000 0.0000
usemtl None
s off
f 1/1/1 3/2/1 4/3/1 2/4/1
f 3/2/2 5/5/2 6/6/2 4/3/2
f 5/5/3 7/7/3 8/8/3 6/6/3
f 1/9/4 2/10/4 8/8/4 7/7/4
o Baseboard
v -2.573176 0.120000 3.104152
v -2.573176 0.000000 3.104152
v 2.426824 0.120000 3.104152
v 2.426824 0.000000 3.104152
v 2.426824 0.120000 -3.895848
v 2.426824 0.000000 -3.895848
v -2.573176 0.120000 -3.895848
v -2.573176 0.000000 -3.895848
v -2.528176 0.120000 3.059152
v -2.528176 0.000000 3.059152
v 2.381824 0.120000 3.059152
v 2.381824 0.000000 3.059152
v 2.381824 0.120000 -3.850848
v 2.381824 0.000000 -3.850848
v -2.528176 0.120000 -3.850848
v -2.528176 0.000000 -3.850848
vt 0.999993 0.000007
vt 0.999993 0.005059
vt 0.789496 0.005060
vt 0.789496 0.000007
vt 0.500032 0.005149
vt 0.500032 0.000097
vt 0.289508 0.005150
vt 0.289508 0.000097
vt 0.000007 0.000008
vt 0.000007 0.005061
vt 0.999993 0.000007
vt 0.789496 0.000007
vt 0.789496 0.005060
vt 0.999993 0.005059
vt 0.500032 0.000097
vt 0.500032 0.005149
vt 0.289508 0.000097
vt 0.289508 0.005150
vt 0.000007 0.000008
vt 0.000007 0.005061
vn 0.0000 0.0000 1.0000
vn 1.0000 0.0000 0.0000
vn 0.0000 0.0000 -1.0000
vn -1.0000 0.0000 0.0000
vn 0.0000 1.0000 0.0000
vn 0.0000 -1.0000 0.0000
usemtl None
s off
f 9/11/5 10/12/5 12/13/5 11/14/5
f 11/14/6 12/13/6 14/15/6 13/16/6
f 13/16/7 14/15/7 16/17/7 15/18/7
f 9/19/8 15/18/8 16/17/8 10/20/8
f 17/21/7 19/22/7 20/23/7 18/24/7
f 19/22/8 21/25/8 22/26/8 20/23/8
f 21/25/5 23/27/5 24/28/5 22/26/5
f 17/29/6 18/30/6 24/28/6 23/27/6
f 13/16/9 15/18/9 23/27/9 21/25/9
f 15/18/9 9/19/9 17/29/9 23/27/9
f 16/17/10 14/15/10 22/26/10 24/28/10
f 9/11/9 11/14/9 19/22/9 17/21/9
f 10/20/10 16/17/10 24/28/10 18/30/10
f 14/15/10 12/13/10 20/23/10 22/26/10
f 12/13/10 10/12/10 18/24/10 20/23/10
f 11/14/9 13/16/9 21/25/9 19/22/9
